<mxfile host="app.diagrams.net" agent="Mozilla/5.0 (Windows NT 10.0; Win64; x64) AppleWebKit/537.36 (KHTML, like Gecko) Chrome/128.0.0.0 Safari/537.36 Edg/128.0.0.0" version="24.7.16">
  <diagram name="第 1 页" id="zMYfFTjwLj_1AR7YZbcv">
    <mxGraphModel dx="2406" dy="793" grid="1" gridSize="10" guides="1" tooltips="1" connect="1" arrows="1" fold="1" page="1" pageScale="1" pageWidth="827" pageHeight="1169" math="0" shadow="0">
      <root>
        <mxCell id="0" />
        <mxCell id="1" parent="0" />
        <mxCell id="uIyoecSdJV_5hzDpAU4D-11" value="主数据团队" style="rounded=0;whiteSpace=wrap;html=1;fillColor=#fff2cc;strokeColor=#d6b656;verticalAlign=bottom;align=right;" parent="1" vertex="1">
          <mxGeometry x="320" y="210" width="380" height="320" as="geometry" />
        </mxCell>
        <mxCell id="uIyoecSdJV_5hzDpAU4D-10" value="研发团队（门店中心）" style="rounded=0;whiteSpace=wrap;html=1;fillColor=#d5e8d4;strokeColor=#82b366;verticalAlign=bottom;align=left;" parent="1" vertex="1">
          <mxGeometry x="-80" y="210" width="580" height="320" as="geometry" />
        </mxCell>
        <mxCell id="uIyoecSdJV_5hzDpAU4D-4" value="" style="edgeStyle=orthogonalEdgeStyle;rounded=0;orthogonalLoop=1;jettySize=auto;html=1;" parent="1" source="uIyoecSdJV_5hzDpAU4D-1" target="uIyoecSdJV_5hzDpAU4D-3" edge="1">
          <mxGeometry relative="1" as="geometry" />
        </mxCell>
        <mxCell id="uIyoecSdJV_5hzDpAU4D-1" value="&lt;b&gt;缩小清洗门店范围&lt;/b&gt;&lt;br&gt;（通过拜访、下单）" style="rounded=0;whiteSpace=wrap;html=1;" parent="1" vertex="1">
          <mxGeometry x="-50" y="240" width="120" height="60" as="geometry" />
        </mxCell>
        <mxCell id="uIyoecSdJV_5hzDpAU4D-6" value="" style="edgeStyle=orthogonalEdgeStyle;rounded=0;orthogonalLoop=1;jettySize=auto;html=1;" parent="1" source="uIyoecSdJV_5hzDpAU4D-3" target="uIyoecSdJV_5hzDpAU4D-5" edge="1">
          <mxGeometry relative="1" as="geometry" />
        </mxCell>
        <mxCell id="uIyoecSdJV_5hzDpAU4D-3" value="调用第三方接口&lt;br&gt;&lt;font style=&quot;font-size: 9px;&quot;&gt;匹配门店社会统一信用代码&lt;/font&gt;" style="rounded=0;whiteSpace=wrap;html=1;" parent="1" vertex="1">
          <mxGeometry x="150" y="240" width="120" height="60" as="geometry" />
        </mxCell>
        <mxCell id="uIyoecSdJV_5hzDpAU4D-17" value="" style="edgeStyle=orthogonalEdgeStyle;rounded=0;orthogonalLoop=1;jettySize=auto;html=1;" parent="1" source="uIyoecSdJV_5hzDpAU4D-5" target="uIyoecSdJV_5hzDpAU4D-16" edge="1">
          <mxGeometry relative="1" as="geometry" />
        </mxCell>
        <mxCell id="uIyoecSdJV_5hzDpAU4D-5" value="基于&lt;br&gt;社会统一信用代码生产审批单" style="whiteSpace=wrap;html=1;rounded=0;" parent="1" vertex="1">
          <mxGeometry x="350" y="240" width="120" height="60" as="geometry" />
        </mxCell>
        <mxCell id="uIyoecSdJV_5hzDpAU4D-7" value="基于门店名称调用第三方API接口" style="rounded=0;whiteSpace=wrap;html=1;dashed=1;" parent="1" vertex="1">
          <mxGeometry x="150" y="330" width="120" height="60" as="geometry" />
        </mxCell>
        <mxCell id="uIyoecSdJV_5hzDpAU4D-8" value="使用AI Fuction 进行最佳结果匹配" style="rounded=0;whiteSpace=wrap;html=1;dashed=1;" parent="1" vertex="1">
          <mxGeometry x="150" y="420" width="120" height="60" as="geometry" />
        </mxCell>
        <mxCell id="uIyoecSdJV_5hzDpAU4D-19" value="" style="edgeStyle=orthogonalEdgeStyle;rounded=0;orthogonalLoop=1;jettySize=auto;html=1;entryX=1;entryY=0.5;entryDx=0;entryDy=0;exitX=0.5;exitY=1;exitDx=0;exitDy=0;" parent="1" source="uIyoecSdJV_5hzDpAU4D-16" target="uIyoecSdJV_5hzDpAU4D-18" edge="1">
          <mxGeometry relative="1" as="geometry" />
        </mxCell>
        <mxCell id="uIyoecSdJV_5hzDpAU4D-16" value="审批&lt;br&gt;通过？" style="rhombus;whiteSpace=wrap;html=1;rounded=0;" parent="1" vertex="1">
          <mxGeometry x="530" y="240" width="80" height="60" as="geometry" />
        </mxCell>
        <mxCell id="uIyoecSdJV_5hzDpAU4D-18" value="调用清洗接口" style="whiteSpace=wrap;html=1;rounded=0;" parent="1" vertex="1">
          <mxGeometry x="350" y="330" width="120" height="60" as="geometry" />
        </mxCell>
      </root>
    </mxGraphModel>
  </diagram>
</mxfile>
